<svg xmlns="http://www.w3.org/2000/svg" viewBox="0 0 80 80" width="80" height="80" fill="#EA4335">
  <path d="M40 0c-22.091 0-40 17.909-40 40s17.908 40 40 40c22.091 0 40-17.909 40-40s-17.909-40-40-40zM55 20c2.761 0 5 2.239 5 5s-2.239 5-5 5-5-2.239-5-5c0-2.761 2.239-5 5-5zM25 20c2.761 0 5 2.239 5 5s-2.239 5-5 5-5-2.239-5-5c0-2.761 2.239-5 5-5zM53.673 63.325c-6.477 2.358-13.664-0.993-16.022-7.47-1.415-3.886-5.727-5.897-9.613-4.482-3.56 1.296-5.544 5.023-4.765 8.627h-5.067c-0.722-5.665 2.535-11.292 8.122-13.325 6.477-2.358 13.664 0.993 16.022 7.47 1.415 3.886 5.727 5.897 9.613 4.482 3.56-1.296 5.544-5.023 4.765-8.627h5.068c0.722 5.665-2.535 11.292-8.122 13.325z"></path>
</svg>