<svg xmlns="http://www.w3.org/2000/svg" viewBox="0 0 80 80" width="80" height="80" fill="#42b983">
  <path d="M40 0c-22.091 0-40 17.909-40 40s17.908 40 40 40c22.091 0 40-17.909 40-40s-17.909-40-40-40zM40 65c-3.786 0-7.374-0.843-10.589-2.35l2.591-4.318c2.45 1.071 5.154 1.669 7.998 1.669 7.282 0 13.654-3.892 17.152-9.709l4.288 2.573c-4.372 7.271-12.337 12.136-21.439 12.136zM65 30c0 2.75-2.25 5-5 5h-10c-2.75 0-5-2.25-5-5h-10c0 2.75-2.25 5-5 5h-10c-2.75 0-5-2.25-5-5v-7.5c0-1.375 1.125-2.5 2.5-2.5h15c1.375 0 2.5 1.125 2.5 2.5v2.5h10v-2.5c0-1.375 1.125-2.5 2.5-2.5h15c1.375 0 2.5 1.125 2.5 2.5v7.5z"></path>
</svg>